#!OML:ASF F:\VICON\USERDATA\INSTALL\rory3\rory3.ASF
:FULLY-SPECIFIED
:DEGREES
382
root 0.964205 17.7625 42.3247 -1.9476 -0.66596 3.67917
lowerback 9.51753 -1.33534 -3.99733
upperback 1.0033 -2.14971 0.983505
thorax -4.10575 -0.992081 3.55014
lowerneck -15.6369 -2.75936 -4.76118
upperneck 21.2934 -3.09123 1.95171
head 9.40613 -1.61409 1.07447
rclavicle -1.66482e-014 -1.35174e-014
rhumerus -32.0756 -18.3992 -79.0829
rradius 26.3141
rwrist 3.4492
rhand -17.307 24.1695
rfingers 7.12502
rthumb 8.93913 -5.62116
lclavicle -1.66482e-014 -1.35174e-014
lhumerus -20.918 -3.15292 80.7246
lradius 26.9737
lwrist 6.41484
lhand -27.1706 22.7707
lfingers 7.12502
lthumb -0.584903 52.7496
rfemur -31.822 1.32153 17.0027
rtibia 36.4069
rfoot -8.36449 -11.8644
rtoes 1.33156
lfemur 5.87658 -1.71265 -29.0987
ltibia 20.2722
lfoot -17.3275 -2.3281
ltoes -3.30104
383
root 0.931313 17.7731 42.5078 -1.82263 -0.890734 3.18027
lowerback 9.35314 -1.3189 -3.90499
upperback 0.902749 -2.1035 1.20879
thorax -4.11794 -0.967299 3.72441
lowerneck -15.0966 -2.50831 -4.32374
upperneck 21.0593 -2.79105 1.58663
head 9.20041 -1.48176 0.919945
rclavicle 2.11209e-014 -1.82882e-014
rhumerus -32.8371 -18.3217 -78.846
rradius 26.5365
rwrist 3.45645
rhand -17.0347 23.9612
rfingers 7.12502
rthumb 9.20189 -5.81804
lclavicle 2.11209e-014 -1.82882e-014
lhumerus -20.8302 -3.56067 80.585
lradius 27.5442
lwrist 6.83604
lhand -26.8845 22.6027
lfingers 7.12502
lthumb -0.308545 52.5822
rfemur -31.5035 3.20475 17.1168
rtibia 32.9849
rfoot -8.26039 -12.8757
rtoes -0.684969
lfemur 6.89467 -1.6161 -28.4114
ltibia 19.0002
lfoot -16.9618 -2.70175
ltoes -2.15464
384
root 0.898419 17.7638 42.641 -1.27306 -1.08417 2.5229
lowerback 9.62105 -1.23568 -3.54138
upperback 0.457236 -1.95661 1.46705
thorax -4.75059 -0.875389 3.79187
lowerneck -14.628 -2.18452 -3.64216
upperneck 20.8286 -2.39114 0.998225
head 9.00373 -1.30576 0.659651
rclavicle 1.10325e-014 -7.95139e-016
rhumerus -33.6633 -18.763 -78.2631
rradius 26.356
rwrist 4.17648
rhand -16.765 25.1888
rfingers 7.12502
rthumb 9.46213 -4.57879
lclavicle 1.10325e-014 -7.95139e-016
lhumerus -20.9467 -4.3094 80.5817
lradius 28.3934
lwrist 7.37195
lhand -27.6287 18.8669
lfingers 7.12502
lthumb -1.02729 48.8442
rfemur -31.916 5.44769 17.1867
rtibia 29.7135
rfoot -8.03371 -14.214
rtoes -3.4928
lfemur 7.42745 -1.66784 -27.5365
ltibia 17.52
lfoot -16.261 -3.10114
ltoes -0.677042
385
root 0.894554 17.7614 42.8681 -1.32678 -0.452134 3.34975
lowerback 9.12199 -1.44439 -4.23376
upperback 0.605564 -2.298 1.24449
thorax -4.26739 -1.04823 3.96926
lowerneck -14.3882 -1.88779 -3.26652
upperneck 20.5908 -1.98666 0.601844
head 8.85902 -1.12859 0.513628
rclavicle -1.72446e-014 1.59028e-015
rhumerus -33.9032 -19.1327 -77.9041
rradius 25.9696
rwrist 4.81119
rhand -16.821 26.7637
rfingers 7.12502
rthumb 9.40805 -3.00634
lclavicle -1.72446e-014 1.59028e-015
lhumerus -20.5935 -4.57924 80.5136
lradius 28.9746
lwrist 7.53644
lhand -27.6661 21.5611
lfingers 7.12502
lthumb -1.06342 51.5382
rfemur -31.1662 5.95625 15.6261
rtibia 26.737
rfoot -8.80574 -14.4311
rtoes -2.68068
lfemur 9.04 -1.57082 -28.3373
ltibia 16.1995
lfoot -16.334 -3.68485
ltoes -1.03085
386
root 0.882388 17.753 43.0696 -1.15159 -0.211747 3.50227
lowerback 8.68281 -1.60443 -4.41621
upperback 0.740973 -2.51014 1.19897
thorax -3.85371 -1.16525 4.02685
lowerneck -15.0218 -2.12416 -3.47445
upperneck 20.8271 -2.30129 0.863773
head 9.06957 -1.26341 0.593255
rclavicle 3.5334e-014 0
rhumerus -33.8257 -19.4787 -77.8234
rradius 25.5754
rwrist 5.37818
rhand -16.5465 26.5317
rfingers 7.12502
rthumb 9.67292 -3.22625
lclavicle 3.5334e-014 0
lhumerus -19.9846 -4.43078 80.2262
lradius 29.38
lwrist 7.16501
lhand -29.176 23.4102
lfingers 7.12502
lthumb -2.52172 53.3751
rfemur -30.9501 6.87956 14.8248
rtibia 24.1097
rfoot -9.4184 -14.6853
rtoes -2.97477
lfemur 10.2985 -1.26403 -28.3422
ltibia 14.8528
lfoot -16.3224 -4.15013
ltoes -2.46675
387
root 0.870906 17.7339 43.2582 -0.965389 0.130495 4.00582
lowerback 8.48672 -1.73174 -4.88615
upperback 0.728097 -2.72202 1.03865
thorax -3.72244 -1.26772 4.13863
lowerneck -15.4285 -2.24801 -3.59284
upperneck 21.1192 -2.47245 1.04558
head 9.25403 -1.3328 0.64952
rclavicle 1.22253e-014 7.95139e-016
rhumerus -33.9388 -19.8605 -77.6326
rradius 25.1311
rwrist 5.67944
rhand -16.3927 25.9411
rfingers 7.12502
rthumb 9.8213 -3.80982
lclavicle 1.22253e-014 7.95139e-016
lhumerus -19.6685 -4.87629 80.1387
lradius 29.9746
lwrist 7.99706
lhand -30.0783 23.1376
lfingers 7.12502
lthumb -3.39304 53.0903
rfemur -30.927 7.75336 13.6081
rtibia 22.0466
rfoot -10.323 -14.9662
rtoes -3.53589
lfemur 11.8428 -1.0941 -28.7296
ltibia 13.07
lfoot -16.0588 -4.63546
ltoes -4.04768
